HIERARCHY
ROOT hip
{
  OFFSET 0 0 0
  CHANNELS 6 Xposition Yposition Zposition Zrotation Yrotation Xrotation
  JOINT abdomen
  {
    OFFSET 0 20.6881 -0.73152
    CHANNELS 3 Zrotation Xrotation Yrotation
    JOINT chest
    {
      OFFSET 0 11.7043 -0.48768
      CHANNELS 3 Zrotation Xrotation Yrotation
      JOINT neck
      {
        OFFSET 0 22.1894 -2.19456
        CHANNELS 3 Zrotation Xrotation Yrotation
        JOINT head
        {
          OFFSET -0.24384 7.07133 1.2192
          CHANNELS 3 Zrotation Xrotation Yrotation
          JOINT leftEye
          {
            OFFSET 4.14528 8.04674 8.04672
            CHANNELS 3 Zrotation Xrotation Yrotation
            End Site
            {
              OFFSET 1 0 0
            }
          }
          JOINT rightEye
          {
            OFFSET -3.6576 8.04674 8.04672
            CHANNELS 3 Zrotation Xrotation Yrotation
            End Site
            {
              OFFSET 1 0 0
            }
          }
        }
      }
      JOINT rCollar
      {
        OFFSET -2.68224 19.2634 -4.8768
        CHANNELS 3 Zrotation Xrotation Yrotation
        JOINT rShldr
        {
          OFFSET -8.77824 -1.95073 1.46304
          CHANNELS 3 Zrotation Xrotation Yrotation
          JOINT rForeArm
          {
            OFFSET -28.1742 -1.7115 0.48768
            CHANNELS 3 Zrotation Xrotation Yrotation
            JOINT rHand
            {
              OFFSET -22.5879 0.773209 7.07136
              CHANNELS 3 Zrotation Xrotation Yrotation
              JOINT rThumb1
              {
                OFFSET -1.2192 -0.487915 3.41376
                CHANNELS 3 Zrotation Xrotation Yrotation
                JOINT rThumb2
                {
                  OFFSET -3.37035 -0.52449 3.41376
                  CHANNELS 3 Zrotation Xrotation Yrotation
                  End Site
                  {
                    OFFSET -1.78271 -1.18214 1.43049
                  }
                }
              }
              JOINT rIndex1
              {
                OFFSET -7.75947 0.938293 5.60832
                CHANNELS 3 Zrotation Xrotation Yrotation
                JOINT rIndex2
                {
                  OFFSET -2.54057 -0.884171 1.56538
                  CHANNELS 3 Zrotation Xrotation Yrotation
                  End Site
                  {
                    OFFSET -1.62519 -0.234802 1.16502
                  }
                }
              }
              JOINT rMid1
              {
                OFFSET -8.24714 1.18213 3.41376
                CHANNELS 3 Zrotation Xrotation Yrotation
                JOINT rMid2
                {
                  OFFSET -3.10165 -0.590103 1.0647
                  CHANNELS 3 Zrotation Xrotation Yrotation
                  End Site
                  {
                    OFFSET -2.48547 -0.328903 0.83742
                  }
                }
              }
              JOINT rRing1
              {
                OFFSET -8.82822 0.546677 1.51678
                CHANNELS 3 Zrotation Xrotation Yrotation
                JOINT rRing2
                {
                  OFFSET -2.60934 -0.819778 -0.0198488
                  CHANNELS 3 Zrotation Xrotation Yrotation
                  End Site
                  {
                    OFFSET -2.33842 -0.294052 0.168128
                  }
                }
              }
              JOINT rPinky1
              {
                OFFSET -8.27202 -0.0477905 -0.4584
                CHANNELS 3 Zrotation Xrotation Yrotation
                JOINT rPinky2
                {
                  OFFSET -1.82734 -0.647385 -0.700984
                  CHANNELS 3 Zrotation Xrotation Yrotation
                  End Site
                  {
                    OFFSET -1.69225 -0.51767 -0.607171
                  }
                }
              }
            }
          }
        }
      }
      JOINT lCollar
      {
        OFFSET 2.68224 19.2634 -4.8768
        CHANNELS 3 Zrotation Xrotation Yrotation
        JOINT lShldr
        {
          OFFSET 8.77824 -1.95073 1.46304
          CHANNELS 3 Zrotation Xrotation Yrotation
          JOINT lForeArm
          {
            OFFSET 28.1742 -1.7115 0.48768
            CHANNELS 3 Zrotation Xrotation Yrotation
            JOINT lHand
            {
              OFFSET 22.5879 0.773209 7.07136
              CHANNELS 3 Zrotation Xrotation Yrotation
              JOINT lThumb1
              {
                OFFSET 1.2192 -0.487915 3.41376
                CHANNELS 3 Zrotation Xrotation Yrotation
                JOINT lThumb2
                {
                  OFFSET 3.37035 -0.52449 3.41376
                  CHANNELS 3 Zrotation Xrotation Yrotation
                  End Site
                  {
                    OFFSET 1.78271 -1.18214 1.43049
                  }
                }
              }
              JOINT lIndex1
              {
                OFFSET 7.75947 0.938293 5.60832
                CHANNELS 3 Zrotation Xrotation Yrotation
                JOINT lIndex2
                {
                  OFFSET 2.54057 -0.884171 1.56538
                  CHANNELS 3 Zrotation Xrotation Yrotation
                  End Site
                  {
                    OFFSET 1.62519 -0.234802 1.16502
                  }
                }
              }
              JOINT lMid1
              {
                OFFSET 8.24714 1.18213 3.41376
                CHANNELS 3 Zrotation Xrotation Yrotation
                JOINT lMid2
                {
                  OFFSET 3.10165 -0.590103 1.0647
                  CHANNELS 3 Zrotation Xrotation Yrotation
                  End Site
                  {
                    OFFSET 2.48547 -0.328903 0.83742
                  }
                }
              }
              JOINT lRing1
              {
                OFFSET 8.82822 0.546677 1.51678
                CHANNELS 3 Zrotation Xrotation Yrotation
                JOINT lRing2
                {
                  OFFSET 2.60934 -0.819778 -0.0198488
                  CHANNELS 3 Zrotation Xrotation Yrotation
                  End Site
                  {
                    OFFSET 2.33842 -0.294052 0.168128
                  }
                }
              }
              JOINT lPinky1
              {
                OFFSET 8.27202 -0.0477905 -0.4584
                CHANNELS 3 Zrotation Xrotation Yrotation
                JOINT lPinky2
                {
                  OFFSET 1.82734 -0.647385 -0.700984
                  CHANNELS 3 Zrotation Xrotation Yrotation
                  End Site
                  {
                    OFFSET 1.69225 -0.51767 -0.607171
                  }
                }
              }
            }
          }
        }
      }
    }
  }
  JOINT rButtock
  {
    OFFSET -8.77824 4.35084 1.2192
    CHANNELS 3 Zrotation Xrotation Yrotation
    JOINT rThigh
    {
      OFFSET 0 -1.70687 -2.19456
      CHANNELS 3 Zrotation Xrotation Yrotation
      JOINT rShin
      {
        OFFSET 0 -36.8199 0.73152
        CHANNELS 3 Zrotation Xrotation Yrotation
        JOINT rFoot
        {
          OFFSET 0.73152 -45.1104 -5.12064
          CHANNELS 3 Zrotation Xrotation Yrotation
          End Site
          {
            OFFSET -1.1221 -3.69964 12.103
          }
        }
      }
    }
  }
  JOINT lButtock
  {
    OFFSET 8.77824 4.35084 1.2192
    CHANNELS 3 Zrotation Xrotation Yrotation
    JOINT lThigh
    {
      OFFSET 0 -1.70687 -2.19456
      CHANNELS 3 Zrotation Xrotation Yrotation
      JOINT lShin
      {
        OFFSET 0 -36.8199 0.73152
        CHANNELS 3 Zrotation Xrotation Yrotation
        JOINT lFoot
        {
          OFFSET -0.73152 -45.1104 -5.12064
          CHANNELS 3 Zrotation Xrotation Yrotation
          End Site
          {
            OFFSET 1.1221 -3.69964 12.103
          }
        }
      }
    }
  }
}
MOTION
Frames:	8
Frame Time:	0.03333
0.0 0.0 0.0 0.0 0.0 0.0 0.0 0.0 0.0 0.0 0.0 0.0 0.0 0.0 0.0 0.0 0.0 0.0 0.0 0.0 0.0 0.0 0.0 0.0 0.0 0.0 0.0 0.0 0.0 0.0 0.0 0.0 0.0 0.0 0.0 0.0 0.0 0.0 0.0 0.0 0.0 0.0 0.0 0.0 0.0 0.0 0.0 0.0 0.0 0.0 0.0 0.0 0.0 0.0 0.0 0.0 0.0 0.0 0.0 0.0 0.0 0.0 0.0 0.0 0.0 0.0 0.0 0.0 0.0 0.0 0.0 0.0 0.0 0.0 0.0 0.0 0.0 0.0 0.0 0.0 0.0 0.0 0.0 0.0 0.0 0.0 0.0 0.0 0.0 0.0 0.0 0.0 0.0 0.0 0.0 0.0 0.0 0.0 0.0 0.0 0.0 0.0 0.0 0.0 0.0 0.0 0.0 0.0 0.0 0.0 0.0 0.0 0.0 0.0 0.0 0.0 0.0 0.0 0.0 0.0 0.0 0.0 0.0 0.0 0.0 0.0 0.0 0.0 0.0 0.0 0.0 0.0
-0.1552 65.7946 -0.2874 -0.820635 -1.405503 -0.666435 -0.671686 -0.132056 99.161946 3.939201 -12.295583 -162.06298 9.690605 -10.709707 92.701072 -26.175089 -27.336124 -40.121849 129.186733 -11.976535 24.907401 -24.589313 -14.942323 62.07352 -109.929184 -76.996052 161.290213 5.929635 45.128968 -3.823749 17.747142 19.094172 28.265903 -46.142374 -28.767274 54.554824 27.175352 26.574446 40.93809 -24.315651 -16.870161 -113.696183 164.920248 31.393409 -110.225842 -14.492287 -42.651717 55.538158 -59.196317 -8.867857 -102.641264 -150.012891 71.00578 95.321131 80.640766 -2.4734 -80.000369 -69.772597 -82.627467 -73.676375 -138.419399 43.017918 -39.265165 23.218326 -7.835624 -56.642503 -41.540712 61.01419 -46.168063 166.03671 -59.556221 178.401081 131.729924 -88.262462 -36.371949 -3.369057 41.483698 85.891583 127.592515 12.386908 -45.465609 -14.342721 20.067414 -10.787072 -10.639011 -18.968928 -61.623721 29.093323 21.423932 75.403158 -104.646018 18.43245 165.879094 -37.663809 -13.506814 -141.351415 82.424987 3.199749 80.235936 15.554236 24.54593 54.356659 -17.223334 9.348788 87.323983 119.657551 -41.522324 121.927239 22.953418 65.736375 170.897587 33.803361 62.860092 -4.258784 -7.260379 -0.751468 -73.425271 -59.01034 61.830555 75.14083 25.844516 37.959323 145.363412 0.760485 43.053796 178.738788 1.897518 -5.080234 34.867945 73.233946 -4.470165 -102.285948
2.5992 63.3703 -1.8483 -161.622512 -51.851726 166.749014 7.89493 16.19734 -54.22366 8.995995 -2.435401 56.537095 3.131043 12.545642 81.371128 -21.91412 -4.473777 -66.889454 -35.671756 0.63304 -1.967282 -43.729822 8.313999 -20.532224 11.88986 -60.416846 10.815413 -89.223717 -27.254189 -100.207565 -13.338832 16.412045 -142.187055 -179.103992 -1.131507 143.783555 -171.520336 -17.215423 116.870247 -131.33304 -39.230025 118.707796 -71.417402 63.610248 26.052251 -138.625696 -34.22837 99.269914 163.666257 -46.171703 129.501777 -55.067984 41.184431 52.798763 47.283516 72.730481 -46.069747 140.522391 -23.946057 -155.764316 -170.706237 -0.771446 -90.27042 97.487306 -15.70639 -70.806779 -6.071564 54.714554 -4.23495 -137.69674 -34.389317 -136.005522 -165.696843 -31.758015 -66.119748 -164.322904 -17.808425 -137.235167 1.31422 -8.464968 -7.089721 -176.06992 -47.297023 -110.534336 25.720277 27.708366 -33.09029 157.634946 -76.696015 -159.036498 68.10128 32.338379 -17.612815 -8.977915 28.65721 -34.933526 86.205769 13.719333 -82.21691 -120.185838 -71.925671 -29.874204 -176.504916 72.982452 155.53224 8.569502 -40.817822 3.294722 -89.421071 56.463249 6.126055 94.171332 -31.827983 -160.841334 26.536337 -51.540396 -135.879611 -99.277806 8.276162 5.334927 27.131164 24.190537 76.53946 -81.21456 -35.361174 24.441662 83.030271 -5.200042 -21.332296 38.781872 -62.437441 -51.08843
4.0796 58.3654 -3.1438 -167.260416 -51.037501 166.389561 1.283028 22.206125 2.206586 5.895019 -10.964866 -10.641506 -12.9018 18.694806 59.003433 -19.865723 -41.54278 -25.988407 -35.811761 -2.221963 6.869537 -57.295975 -9.69914 17.655558 12.589659 -42.478771 21.045772 87.140404 24.205578 -70.514039 178.641846 -9.86929 36.302063 -176.027655 18.137839 143.817747 164.013594 14.542412 93.961785 -157.860654 80.043016 87.311983 -72.157173 70.682506 24.90225 137.938918 -39.883502 105.013547 -3.554885 -51.302544 -11.248562 -8.030575 -1.932186 -0.144339 -119.344981 79.047389 120.621837 -167.527812 -27.332336 171.011395 -146.690317 0.297872 -85.153168 62.839477 1.112215 -67.809591 -18.872109 29.35535 17.3509 -68.488324 -45.005119 -89.98133 -171.161403 15.288471 -90.587385 -143.453901 -26.817653 -129.304632 -10.371637 -18.01547 -12.436697 57.590041 57.23122 -21.942071 -157.016111 -56.298438 -91.84937 158.828907 -78.086173 -139.279986 129.614968 36.76605 -85.730786 -5.54365 14.850137 -43.608111 8.14317 29.464118 -30.84753 -20.023011 10.807282 12.508308 4.714354 -25.30056 15.23216 -79.866515 -58.52505 -98.900839 -68.746169 65.936636 -59.999844 74.601903 18.068831 46.463274 -27.592374 49.012185 -55.030313 144.616392 29.150583 -46.548815 114.070076 74.060386 58.246471 -129.934935 8.521907 -67.946174 -70.181242 43.553271 155.557472 -140.505422 22.014033 56.87169
4.0555 59.2214 -3.0959 -174.032818 -55.923544 175.089759 -8.782958 12.580145 -58.859369 15.385876 3.800476 58.215276 -1.794997 33.233886 81.154278 -43.72381 -9.054732 -61.805437 122.604253 -26.496791 46.542795 -32.112055 -17.554235 56.42478 21.918482 -46.478866 14.474047 111.538634 34.170153 -97.467175 -11.243923 -25.002148 103.961538 11.353466 -46.002729 10.087057 -164.913331 11.113369 89.767334 129.718704 -59.305383 100.502362 -178.100525 -65.174728 133.716451 34.659374 56.745272 16.810234 -90.088821 70.581263 77.535099 -152.365165 -61.140924 168.485843 -162.09577 -45.914613 -176.837358 -82.669286 53.641015 96.68143 -36.149018 35.627011 -78.674671 -11.35644 2.286708 147.507525 0.306567 44.530806 -12.864777 -59.981012 -52.810018 -84.710531 -158.320013 20.287294 -111.697228 -158.775863 -12.960551 -153.708487 5.256617 -28.998155 10.296512 120.944335 -9.818212 -146.381445 106.278476 53.520596 -111.185717 -158.522281 15.567237 -132.681384 -75.327541 -82.674473 -27.960323 167.373233 17.889048 -162.110833 34.49739 60.658696 -26.436698 138.488726 -9.306567 -171.002502 147.3052 57.115153 167.325019 16.815508 4.656332 17.804462 8.977368 -11.373631 -4.469904 -36.254327 -2.284139 86.205288 66.992487 -9.291877 97.053697 -129.394751 34.013538 -149.1093 150.917927 86.574716 23.202532 -144.953646 16.058187 89.634631 74.191174 -17.551574 -13.903315 -148.764901 9.106766 67.695336
3.9516000000000004 56.965900000000005 -3.7913 -173.087567 -54.968771 174.39088 -8.919246 12.303037 -100.900629 11.680465 13.661003 109.514073 -2.154226 28.401283 -11.619078 8.563073 -30.811181 35.138382 131.140949 -19.917687 42.26787 -8.956034 -5.329598 61.446121 -120.552566 58.30993 129.132542 -83.520987 11.905137 113.25159 -176.419675 1.549877 -65.651783 -0.214473 -36.542365 -1.440179 -172.860072 -15.860318 93.609365 -172.52834 -44.651952 104.151717 -2.577008 14.071132 -1.257622 58.527738 -61.642922 75.554261 -142.80277 39.777338 130.591176 -2.806939 46.622371 11.534258 1.613516 -52.899243 4.547943 -178.825911 57.297224 156.720699 -95.065945 35.466734 -39.461701 120.632935 -41.708743 15.327716 162.740323 -53.809865 -160.011275 148.481823 31.797564 149.885607 148.586379 87.832534 -80.164389 -128.72593 -45.242373 -136.261487 -171.015962 9.217491 -98.53272 57.120621 -52.010274 0.540391 10.500264 -58.180083 107.234958 149.969207 -67.622134 -44.523121 -5.303518 -21.803599 6.142877 133.521456 -31.380429 -150.330666 178.696778 -14.893118 176.204393 -28.294283 -77.121488 -27.382458 10.002724 2.687969 -15.677689 133.146371 4.804209 124.618144 2.907875 -5.706275 3.187866 -30.271882 0.357502 92.403931 63.130421 -18.480033 117.512524 -134.036371 66.614109 -129.512668 68.776077 72.612691 104.619562 -123.729306 19.47346 52.542647 81.449542 14.915651 38.446364 -42.418072 -27.648755 -147.870003
4.277100000000001 55.754400000000004 -4.366 -171.5338 -56.53832 174.069527 -8.762856 16.419574 14.335844 6.68119 -22.153675 5.13104 23.309564 35.827458 113.610637 -25.575181 30.925019 -95.175695 73.01543 17.477685 23.464368 -1.965163 -0.802623 44.429436 6.667356 18.326624 -11.899396 -104.750371 -8.24405 -161.692813 -84.970709 37.634051 -99.006425 -178.362283 -46.972475 148.822768 -58.47376 37.746398 40.151972 -30.760873 -7.265076 -7.576975 29.296531 -46.275025 -16.947279 9.779116 -23.198073 62.324331 -170.194215 -44.19421 142.827431 21.923167 -22.137924 14.068694 -117.132463 31.647188 129.479569 50.542894 6.89913 13.043687 -77.906942 17.383456 26.901916 20.90644 70.55616 96.157864 159.735806 -11.478613 -149.041852 -105.53762 46.705582 99.585507 -178.365053 -8.179371 -110.603758 -118.317485 -54.619191 -132.018157 17.275033 -6.140624 8.373679 -40.364881 -66.671696 30.21114 101.321027 23.385659 -160.17722 -98.783661 22.605896 105.177659 168.2551 -21.513467 -158.828322 8.954156 -2.71671 30.849972 48.726012 -51.079794 40.624471 -8.439443 -14.959948 10.123336 40.523451 74.604471 -74.2531 -0.329901 -58.756585 26.718552 -94.377748 20.947961 -31.68065 70.055402 20.444027 -9.246604 -13.754212 51.85133 104.320352 -13.800783 65.861931 -81.880442 84.309114 -7.024657 29.560187 -37.3903 -28.335864 -123.976381 -72.153223 -56.475164 -177.964159 -132.491982 47.098142 43.465433
4.6366 55.8921 -4.3006 -171.491516 -61.487507 174.800021 -2.438094 11.944073 -139.623237 8.281176 14.317264 158.330268 19.584252 33.720509 155.472829 -5.783212 35.716493 -146.542671 12.218712 -2.310561 -21.339871 -9.223569 0.35607 -4.41201 -145.491422 -11.608357 -170.116621 136.093581 1.14042 153.980804 -21.914699 -7.865723 109.789612 -5.006271 -69.095248 -20.589714 11.844416 7.146623 4.491634 4.953636 -67.30298 1.689103 -144.636202 -22.754985 130.590658 -114.385867 -72.740611 136.44021 -165.517092 -32.454759 145.229682 -144.752988 16.229883 136.113697 80.334898 -64.298668 71.965739 -33.379924 33.397283 -24.116532 -42.650768 15.304055 90.42139 12.422885 -33.629539 -71.323548 63.275793 48.730247 -63.564446 108.398154 52.597446 -61.945915 123.082815 -32.784942 -179.159213 -13.805634 -15.547418 -34.653213 -157.918396 -32.823562 -92.968045 111.695732 20.832552 -62.418941 83.655917 -65.367999 149.918561 -146.697614 -60.19711 -27.106155 75.23241 78.418035 -66.47943 12.200189 -39.987058 -5.056708 111.569188 -35.264317 136.732068 120.121342 -24.643054 -169.902012 145.967418 66.51215 167.070232 98.875298 65.902709 -136.377145 -90.272365 24.07168 -36.956275 65.115433 21.747366 98.953315 48.933871 -0.472147 -69.945921 -43.742718 13.199522 -24.390098 78.597223 -17.705239 -0.334334 -15.482697 -36.606605 178.443316 74.932993 -32.522747 -38.173488 152.238089 -70.012791 42.605657
